<svg xmlns="http://www.w3.org/2000/svg" width="38" height="38" viewBox="0 0 38 38">
  <defs>
    <style>
      .cls-1 {
        fill: #404041;
        fill-rule: evenodd;
      }
    </style>
  </defs>
  <path id="_1" data-name="1" class="cls-1" d="M1400,3505a19,19,0,1,1,19-19A19,19,0,0,1,1400,3505Zm0-35.63a16.625,16.625,0,1,0,16.63,16.63A16.636,16.636,0,0,0,1400,3469.37Zm0.55,24.27a1.058,1.058,0,0,1-.3.48,1.186,1.186,0,0,1-1.68-.05l-5.42-5.01a1.185,1.185,0,1,1,1.73-1.62l4.25,3.91,7.59-13.15a1.19,1.19,0,0,1,2.06,1.19Z" transform="translate(-1381 -3467)"/>
</svg>
