<svg xmlns="http://www.w3.org/2000/svg" width="32" height="40" viewBox="0 0 32 40">
  <defs>
    <style>
      .cls-1 {
        fill: #404041;
        fill-rule: evenodd;
      }
    </style>
  </defs>
  <path id="_1" data-name="1" class="cls-1" d="M533.077,3509H510.923a4.963,4.963,0,0,1-4.923-5v-30a4.963,4.963,0,0,1,4.923-5h14.769c1.648-.03,2.3.03,2.462,0.03V3469L538,3479v25A4.963,4.963,0,0,1,533.077,3509Zm-4.923-37.5v5a2.481,2.481,0,0,0,2.461,2.5h4.924Zm7.385,10h-4.924a4.963,4.963,0,0,1-4.923-5s-0.057-2.01-.035-5H510.923a2.481,2.481,0,0,0-2.461,2.5v30a2.481,2.481,0,0,0,2.461,2.5h22.154a2.482,2.482,0,0,0,2.462-2.5v-22.5Zm-6.154,17.5h-14.77a1.25,1.25,0,0,1,0-2.5h14.77A1.25,1.25,0,0,1,529.385,3499Zm0-7.5h-14.77a1.25,1.25,0,0,1,0-2.5h14.77A1.25,1.25,0,0,1,529.385,3491.5Z" transform="translate(-506 -3469)"/>
</svg>
